<?xml version="1.0" encoding="UTF-8" ?>
<!DOCTYPE svg PUBLIC "-//W3C//DTD SVG 1.1//EN" "http://www.w3.org/Graphics/SVG/1.1/DTD/svg11.dtd">
<svg width="400pt" height="600pt" viewBox="0 0 400 600" version="1.1" xmlns="http://www.w3.org/2000/svg">
<g id="#de2028f6">
<path fill="#de2028" opacity="0.96" d=" M 309.69 212.59 C 323.68 208.31 333.70 197.36 345.04 188.83 C 339.22 204.55 334.72 222.07 321.03 233.02 C 308.14 244.10 290.26 245.34 274.04 245.72 C 246.66 244.96 218.21 240.58 191.69 249.63 C 173.75 255.18 157.48 266.02 145.46 280.44 C 140.09 287.06 136.47 295.70 138.64 304.34 C 140.64 309.89 147.78 311.26 152.61 308.60 C 159.86 304.43 165.83 298.53 172.15 293.14 C 184.52 282.25 199.10 274.21 214.27 267.91 C 213.88 266.09 213.49 264.27 213.09 262.46 C 190.83 265.58 171.51 279.50 156.50 295.58 C 154.17 298.53 150.10 296.55 146.92 296.63 C 148.84 289.00 154.79 283.42 160.60 278.57 C 173.86 267.38 189.20 257.85 206.45 254.54 C 212.56 252.55 221.60 255.34 222.61 262.41 C 224.45 267.89 221.66 274.01 216.85 276.84 C 212.73 279.35 208.06 280.73 203.73 282.82 C 191.29 289.05 180.52 297.99 170.16 307.14 C 163.36 312.44 156.20 319.21 146.96 318.98 C 142.00 319.20 137.21 316.60 133.70 313.30 C 128.00 308.30 128.70 299.97 129.28 293.15 C 132.35 279.74 142.37 269.20 152.43 260.44 C 166.83 249.32 183.60 240.90 201.62 237.67 C 230.44 231.90 259.95 237.14 289.03 235.88 C 302.52 234.95 315.62 228.39 323.32 217.03 C 305.85 225.19 286.18 227.74 267.08 225.75 C 262.95 224.84 265.01 220.13 265.13 217.05 C 280.04 216.90 295.54 218.41 309.69 212.59 Z" />
<path fill="#de2028" opacity="0.96" d=" M 164.01 229.97 C 191.30 216.52 222.65 213.52 252.59 216.56 C 256.18 217.86 253.85 222.11 253.84 225.01 C 238.55 225.10 223.19 224.40 207.95 225.97 C 187.69 228.31 168.68 236.72 151.60 247.59 C 137.31 257.21 124.47 270.55 119.35 287.34 C 116.90 296.28 115.63 306.40 120.10 314.95 C 123.99 324.17 134.21 329.92 144.03 329.76 C 152.45 330.51 160.08 326.17 166.95 321.93 C 182.11 312.74 193.78 298.57 210.01 291.04 C 229.75 280.75 252.98 281.56 272.98 271.99 C 289.77 264.87 303.70 252.87 317.80 241.61 C 312.94 254.03 308.79 266.98 300.96 277.95 C 290.53 293.55 275.32 306.81 256.95 311.81 C 256.16 309.35 255.36 306.80 254.68 304.34 C 270.56 297.11 285.40 286.52 294.33 271.20 C 282.66 278.05 270.29 284.01 256.99 286.92 C 239.01 291.59 219.35 293.58 204.10 305.14 C 189.70 315.80 176.75 329.00 159.91 335.94 C 149.72 339.62 137.65 340.64 127.99 334.97 C 117.23 329.93 109.87 319.13 108.65 307.40 C 106.19 292.41 111.95 277.46 120.30 265.29 C 131.07 249.53 147.18 238.44 164.01 229.97 Z" />
<path fill="#de2028" opacity="0.96" d=" M 61.39 295.38 C 71.95 269.93 96.85 254.50 122.36 247.00 C 114.04 258.71 103.84 269.81 100.14 284.06 C 93.62 302.84 96.50 326.27 112.33 339.63 C 118.82 345.50 128.23 346.37 134.65 352.26 C 133.63 354.06 132.61 355.87 131.59 357.69 C 120.67 355.62 109.80 351.25 102.37 342.65 C 89.86 329.84 86.32 310.65 88.53 293.41 C 89.44 284.75 93.21 276.82 96.00 268.68 C 89.86 273.19 83.63 277.85 79.07 284.04 C 74.92 288.80 72.53 294.77 68.59 299.66 C 65.96 303.11 59.73 299.38 61.39 295.38 Z" />
<path fill="#de2028" opacity="0.96" d=" M 224.67 307.62 C 237.38 305.04 249.93 317.21 248.73 329.89 C 246.50 347.80 232.46 361.45 218.62 371.58 C 204.91 380.75 190.10 389.11 173.81 392.53 C 173.08 390.08 172.33 387.46 171.70 385.03 C 192.65 376.89 213.91 367.24 229.05 350.05 C 234.12 344.25 238.48 337.41 239.64 329.67 C 240.60 322.28 233.32 314.89 225.86 316.72 C 213.80 320.29 204.95 329.83 194.99 336.99 C 180.08 348.89 162.03 359.11 142.34 358.38 C 142.13 355.03 141.89 350.05 146.46 349.80 C 167.67 347.44 184.98 334.03 200.79 320.78 C 208.04 315.42 215.50 309.11 224.67 307.62 Z" />
<path fill="#de2028" opacity="0.96" d=" M 56.87 310.85 C 58.37 307.79 62.27 310.23 64.95 310.16 C 64.56 320.96 63.19 332.13 66.36 342.66 C 70.84 355.11 78.68 366.82 90.00 374.00 C 109.89 387.88 135.54 390.67 159.05 387.34 C 164.13 386.30 166.24 394.95 160.90 395.82 C 133.39 401.59 103.05 395.63 80.58 378.44 C 66.87 367.83 57.89 351.45 55.57 334.35 C 55.18 326.55 53.59 318.25 56.87 310.85 Z" />
<path fill="#de2028" opacity="0.96" d=" M 263.10 317.88 C 265.60 317.93 269.24 318.29 269.64 321.39 C 271.12 341.08 260.28 359.33 246.83 372.83 C 225.56 395.69 195.75 409.44 165.16 414.29 C 158.13 415.33 150.80 416.34 143.82 414.41 C 144.46 412.87 145.73 409.78 146.37 408.24 C 151.90 406.49 157.76 406.36 163.45 405.43 C 191.26 401.35 217.88 388.67 238.09 369.08 C 247.37 359.34 256.78 348.37 259.07 334.63 C 260.76 329.15 259.91 322.83 263.10 317.88 Z" />
<path fill="#de2028" opacity="0.96" d=" M 74.53 321.74 C 83.60 322.42 82.73 332.15 85.84 338.27 C 90.84 349.78 101.67 356.69 110.13 365.38 C 107.78 366.75 105.37 369.67 102.38 368.63 C 90.62 362.42 81.74 351.67 76.32 339.66 C 74.15 334.00 72.87 327.70 74.53 321.74 Z" />
<path fill="#de2028" opacity="0.96" d=" M 221.61 328.60 C 224.04 326.41 227.42 328.32 230.18 328.64 C 225.42 339.64 216.28 347.85 206.88 354.90 C 187.22 370.44 161.99 378.57 136.99 378.07 C 129.69 378.33 122.49 376.65 115.64 374.27 C 116.25 371.63 116.98 369.31 117.70 366.77 C 127.75 367.87 137.82 369.33 147.97 368.90 C 171.95 365.99 194.57 354.62 211.93 337.93 C 215.28 334.95 218.16 331.47 221.61 328.60 Z" />
</g>
</svg>
